<mxfile host="app.diagrams.net" modified="2022-01-09T04:16:41.761Z" agent="5.0 (Windows NT 10.0; Win64; x64) AppleWebKit/537.36 (KHTML, like Gecko) Chrome/96.0.4664.110 Safari/537.36" etag="EJvy78D6BFyPh-DxRIb_" version="16.2.4" type="github">
  <diagram id="Sor_EF6UsAyW6L9dSWi5" name="Page-1">
    <mxGraphModel dx="1697" dy="928" grid="1" gridSize="10" guides="1" tooltips="1" connect="1" arrows="1" fold="1" page="1" pageScale="1" pageWidth="827" pageHeight="1169" math="0" shadow="0">
      <root>
        <mxCell id="0" />
        <mxCell id="1" parent="0" />
        <mxCell id="c1DZD8Wn5qckhRbWXPy8-6" value="" style="rounded=0;whiteSpace=wrap;html=1;" vertex="1" parent="1">
          <mxGeometry x="100" y="110" width="460" height="110" as="geometry" />
        </mxCell>
        <mxCell id="c1DZD8Wn5qckhRbWXPy8-1" value="Polygon" style="rounded=1;whiteSpace=wrap;html=1;" vertex="1" parent="1">
          <mxGeometry x="110" y="585" width="120" height="60" as="geometry" />
        </mxCell>
        <mxCell id="c1DZD8Wn5qckhRbWXPy8-2" value="BSC" style="rounded=1;whiteSpace=wrap;html=1;" vertex="1" parent="1">
          <mxGeometry x="240" y="585" width="120" height="60" as="geometry" />
        </mxCell>
        <mxCell id="c1DZD8Wn5qckhRbWXPy8-3" value="Solana" style="rounded=1;whiteSpace=wrap;html=1;" vertex="1" parent="1">
          <mxGeometry x="370" y="585" width="120" height="60" as="geometry" />
        </mxCell>
        <mxCell id="c1DZD8Wn5qckhRbWXPy8-4" value="Infura" style="rounded=1;whiteSpace=wrap;html=1;" vertex="1" parent="1">
          <mxGeometry x="240" y="480" width="120" height="30" as="geometry" />
        </mxCell>
        <mxCell id="c1DZD8Wn5qckhRbWXPy8-7" value="SNS App&lt;br&gt;(Dapp)" style="rounded=1;whiteSpace=wrap;html=1;" vertex="1" parent="1">
          <mxGeometry x="120" y="120" width="120" height="60" as="geometry" />
        </mxCell>
        <mxCell id="c1DZD8Wn5qckhRbWXPy8-9" value="&lt;font style=&quot;font-size: 12px&quot;&gt;Linkkey&amp;nbsp;&lt;span style=&quot;color: rgb(51 , 51 , 51) ; line-height: 12px ; text-align: left ; background-color: rgb(255 , 255 , 255)&quot;&gt;drift bottle&lt;br&gt;(Chrome Plugin)&lt;br&gt;&lt;/span&gt;&lt;/font&gt;" style="rounded=1;whiteSpace=wrap;html=1;" vertex="1" parent="1">
          <mxGeometry x="251" y="120" width="120" height="60" as="geometry" />
        </mxCell>
        <mxCell id="c1DZD8Wn5qckhRbWXPy8-11" value="&lt;font style=&quot;font-size: 12px&quot;&gt;&lt;font&gt;Linkkey&amp;nbsp;&lt;/font&gt;&lt;span style=&quot;line-height: 12px ; background-color: rgb(255 , 255 , 255)&quot;&gt;Social chat&lt;br&gt;（Dapp）&lt;br&gt;&lt;/span&gt;&lt;/font&gt;" style="rounded=1;whiteSpace=wrap;html=1;" vertex="1" parent="1">
          <mxGeometry x="380" y="120" width="120" height="60" as="geometry" />
        </mxCell>
        <mxCell id="c1DZD8Wn5qckhRbWXPy8-12" value="2021.12 released" style="text;html=1;strokeColor=none;fillColor=none;align=center;verticalAlign=middle;whiteSpace=wrap;rounded=0;fontSize=12;" vertex="1" parent="1">
          <mxGeometry x="150" y="180" width="60" height="30" as="geometry" />
        </mxCell>
        <mxCell id="c1DZD8Wn5qckhRbWXPy8-15" value="&lt;span style=&quot;color: rgb(51 , 51 , 51) ; text-align: left ; background-color: rgb(255 , 255 , 255)&quot;&gt;2022.1 release&lt;/span&gt;" style="text;html=1;strokeColor=none;fillColor=none;align=center;verticalAlign=middle;whiteSpace=wrap;rounded=0;fontSize=12;" vertex="1" parent="1">
          <mxGeometry x="281" y="180" width="60" height="30" as="geometry" />
        </mxCell>
        <mxCell id="c1DZD8Wn5qckhRbWXPy8-16" value="&lt;span style=&quot;color: rgb(51 , 51 , 51) ; text-align: left ; background-color: rgb(255 , 255 , 255)&quot;&gt;2022Q1 release&lt;/span&gt;" style="text;html=1;strokeColor=none;fillColor=none;align=center;verticalAlign=middle;whiteSpace=wrap;rounded=0;fontSize=12;" vertex="1" parent="1">
          <mxGeometry x="410" y="180" width="60" height="30" as="geometry" />
        </mxCell>
        <mxCell id="c1DZD8Wn5qckhRbWXPy8-18" value="2021.10&lt;br&gt;supported" style="text;html=1;strokeColor=none;fillColor=none;align=center;verticalAlign=middle;whiteSpace=wrap;rounded=0;fontSize=12;" vertex="1" parent="1">
          <mxGeometry x="140" y="645" width="60" height="30" as="geometry" />
        </mxCell>
        <mxCell id="c1DZD8Wn5qckhRbWXPy8-19" value="2022Q1&lt;br&gt;will be supported" style="text;html=1;strokeColor=none;fillColor=none;align=center;verticalAlign=middle;whiteSpace=wrap;rounded=0;fontSize=12;" vertex="1" parent="1">
          <mxGeometry x="235" y="645" width="130" height="35" as="geometry" />
        </mxCell>
        <mxCell id="c1DZD8Wn5qckhRbWXPy8-20" value="2022Q2&lt;br&gt;will be supported" style="text;html=1;strokeColor=none;fillColor=none;align=center;verticalAlign=middle;whiteSpace=wrap;rounded=0;fontSize=12;" vertex="1" parent="1">
          <mxGeometry x="365" y="645" width="130" height="35" as="geometry" />
        </mxCell>
        <mxCell id="c1DZD8Wn5qckhRbWXPy8-21" value="&lt;span style=&quot;color: rgb(46 , 48 , 51) ; font-family: &amp;#34;arial&amp;#34; , &amp;#34;microsoft yahei&amp;#34; , , , &amp;#34;malgun gothic&amp;#34; , &amp;#34;meiryo&amp;#34; , sans-serif ; font-size: 13.7143px ; line-height: 17.9911px ; background-color: rgb(255 , 255 , 255)&quot;&gt;blockchain infrastructure&lt;/span&gt;" style="text;html=1;strokeColor=none;fillColor=none;align=center;verticalAlign=middle;whiteSpace=wrap;rounded=0;fontSize=12;" vertex="1" parent="1">
          <mxGeometry x="215" y="510" width="170" height="30" as="geometry" />
        </mxCell>
      </root>
    </mxGraphModel>
  </diagram>
</mxfile>
